<svg xmlns="http://www.w3.org/2000/svg" viewBox="0 0 600 600" width="600" height="600" role="img" aria-label="Crackstreet Boys 2 von Trailerpark">
  <defs>
    <linearGradient id="bg" gradientTransform="rotate(77 0.5 0.5)">
      <stop offset="0%" stop-color="#00ff9d"/>
      <stop offset="100%" stop-color="#005f56"/>
    </linearGradient>
    <filter id="grain">
      <feTurbulence type="fractalNoise" baseFrequency="0.85" numOctaves="3"/>
      <feColorMatrix type="saturate" values="0"/>
    </filter>
    <clipPath id="clip"><rect width="600" height="600"/></clipPath>
  </defs>
  <g clip-path="url(#clip)">
    <rect width="600" height="600" fill="url(#bg)"/>
    <polygon points="196.1,-24.6 315.6,205.4 303.8,220.2" fill="none" stroke="#f7ff00" stroke-width="5.9" opacity="0.18"/>
    <polygon points="341.5,598.1 204.4,287.4 319.1,327.8" fill="none" stroke="#f7ff00" stroke-width="7.0" opacity="0.27"/>
    <polygon points="-50.1,-22.8 -97.6,210.7 -131.7,62.3" fill="none" stroke="#f7ff00" stroke-width="3.8" opacity="0.46"/>
    <polygon points="599.1,627.5 522.6,280.5 629.4,346.8" fill="none" stroke="#f7ff00" stroke-width="5.6" opacity="0.36"/>
    <polygon points="545.7,398.7 581.4,527.9 598.6,510.8" fill="none" stroke="#f7ff00" stroke-width="2.5" opacity="0.28"/>
    <polygon points="206.5,201.0 92.1,28.8 19.7,303.3" fill="none" stroke="#f7ff00" stroke-width="2.6" opacity="0.36"/>
    <rect width="600" height="600" filter="url(#grain)" opacity="0.10"/>
    <rect x="0" y="380" width="600" height="220" fill="#000" opacity="0.58"/>
    <text x="52" y="426" font-family="Helvetica, Arial, sans-serif" font-size="26" font-weight="700" letter-spacing="6" fill="#f7ff00">TRAILERPARK</text>
    <text x="52" y="480" font-family="Helvetica, Arial, sans-serif" font-size="50" font-weight="800" letter-spacing="1" fill="#ffffff">
      <tspan x="52" dy="0">CRACKSTREET BOYS</tspan>
      <tspan x="52" dy="58">2</tspan>
    </text>
    <text x="548" y="426" text-anchor="end" font-family="Helvetica, Arial, sans-serif" font-size="26" font-weight="700" fill="#ffffff" opacity="0.75">2012</text>
  </g>
  <rect x="4" y="4" width="592" height="592" fill="none" stroke="#f7ff00" stroke-width="6" opacity="0.9"/>
</svg>
